<svg xmlns="http://www.w3.org/2000/svg" viewBox="0 0 320 200" width="320" height="200" role="img" aria-label="C · Ledger layout: pure white page, numbered index column on the left, contact rows and facts under ink rules, skills as a table">
  <rect width="320" height="200" fill="#ffffff"/>
  <!-- header: GS · host, inline nav, language, theme, outlined Save as PDF, ink rule -->
  <rect x="9.8" y="5.8" width="3.6" height="2" fill="#15181c"/>
  <rect x="16.4" y="4.8" width="0.3" height="4" fill="#c9cdd1"/>
  <rect x="19.5" y="6.1" width="18" height="1.4" fill="#555a60"/>
  <g fill="#3b4046">
    <rect x="68" y="6.1" width="8" height="1.5"/><rect x="80.4" y="6.1" width="17" height="1.5"/><rect x="101.4" y="6.1" width="33" height="1.5"/>
    <rect x="139" y="6.1" width="14.3" height="1.5"/><rect x="157.7" y="6.1" width="12.4" height="1.5"/><rect x="174.4" y="6.1" width="14" height="1.5"/>
    <rect x="192.7" y="6.1" width="13.3" height="1.5"/><rect x="210.4" y="6.1" width="11.2" height="1.5"/>
  </g>
  <rect x="68" y="8.6" width="8" height="0.35" fill="#15181c"/>
  <rect x="252" y="6" width="3.4" height="1.6" fill="#15181c"/><rect x="252" y="8.4" width="3.4" height="0.35" fill="#15181c"/>
  <rect x="257.2" y="6" width="0.6" height="1.6" fill="#8a8f94"/>
  <rect x="259.4" y="6" width="7.8" height="1.6" fill="#3b4046"/>
  <rect x="270.6" y="5.8" width="2" height="2" fill="#3b4046"/><rect x="273.8" y="6.1" width="8" height="1.5" fill="#555a60"/>
  <rect x="286.4" y="3.5" width="23.6" height="6.9" fill="none" stroke="#15181c" stroke-width="0.4"/>
  <rect x="289.4" y="6.2" width="17.6" height="1.5" fill="#15181c"/>
  <rect x="0" y="13.4" width="320" height="0.35" fill="#15181c"/>
  <!-- the spine: 00 and the eyebrow, then 01 at the section heading; hairline index column (21 px) -->
  <rect x="31.1" y="26" width="0.3" height="129.4" fill="#d9dcdf"/>
  <g fill="#555a60"><rect x="9.8" y="28.7" width="3.2" height="1.2"/><rect x="9.8" y="32.3" width="15.6" height="1.2"/><rect x="9.8" y="35.9" width="6" height="1.2"/><rect x="9.8" y="39.5" width="5.6" height="1.2"/></g>
  <rect x="31.1" y="174.7" width="0.3" height="25.3" fill="#d9dcdf"/>
  <rect x="9.8" y="180.1" width="3.3" height="1.3" fill="#0056bc"/>
  <!-- hero: name, role, subrole, tagline -->
  <rect x="40.2" y="30" width="107.8" height="10.2" fill="#2a2e33"/>
  <rect x="40.2" y="48.4" width="52" height="3" fill="#15181c"/>
  <rect x="96.4" y="49.5" width="66" height="1.3" fill="#555a60"/>
  <rect x="40.2" y="55.6" width="77" height="1.6" fill="#555a60"/>
  <rect x="40.2" y="66.2" width="156" height="2.6" fill="#2a2e33"/>
  <rect x="40.2" y="73.1" width="95" height="2.6" fill="#2a2e33"/>
  <!-- contact rows: label, value, COPY -->
  <g fill="#d9dcdf"><rect x="40.2" y="87.3" width="269.8" height="0.3"/><rect x="40.2" y="97" width="269.8" height="0.3"/><rect x="40.2" y="106.7" width="269.8" height="0.3"/><rect x="40.2" y="116.3" width="269.8" height="0.3"/><rect x="40.2" y="125.8" width="269.8" height="0.3"/></g>
  <g fill="#555a60"><rect x="40.2" y="91.8" width="7.6" height="1.1"/><rect x="40.2" y="101.4" width="7.6" height="1.1"/><rect x="40.2" y="111.1" width="9.4" height="1.1"/><rect x="40.2" y="120.7" width="5" height="1.1"/></g>
  <g fill="#15181c"><rect x="66.9" y="91.4" width="33.6" height="1.8"/><rect x="66.9" y="101" width="28.2" height="1.8"/><rect x="66.9" y="110.7" width="30.4" height="1.8"/><rect x="66.9" y="120.3" width="19.6" height="1.8"/></g>
  <g fill="#0056bc"><rect x="303.5" y="91.6" width="6.5" height="1.2"/><rect x="303.5" y="101.2" width="6.5" height="1.2"/></g>
  <!-- facts strip between ink rules -->
  <rect x="40.2" y="133.9" width="269.8" height="0.6" fill="#15181c"/>
  <rect x="40.2" y="154.9" width="269.8" height="0.3" fill="#15181c"/>
  <g fill="#d9dcdf"><rect x="107.8" y="134.5" width="0.3" height="20.4"/><rect x="175.3" y="134.5" width="0.3" height="20.4"/><rect x="242.7" y="134.5" width="0.3" height="20.4"/></g>
  <g fill="#2a2e33"><rect x="40.2" y="139.4" width="13" height="5.4"/><rect x="112.4" y="139.4" width="25" height="5.4"/><rect x="179.8" y="139.4" width="29" height="5.4"/><rect x="247.2" y="139.4" width="22" height="5.4"/></g>
  <g fill="#555a60"><rect x="40.2" y="148.5" width="30" height="1.1"/><rect x="112.4" y="148.5" width="22" height="1.1"/><rect x="179.8" y="148.5" width="22" height="1.1"/><rect x="247.2" y="148.5" width="30" height="1.1"/></g>
  <!-- 01 Profile: heading and two columns -->
  <rect x="40.2" y="175.6" width="21" height="6" fill="#15181c"/>
  <rect x="175" y="189" width="0.3" height="11" fill="#d9dcdf"/>
  <g fill="#3b4046"><rect x="40.2" y="190.4" width="125.5" height="1.8"/><rect x="40.2" y="196.1" width="122" height="1.8"/><rect x="181.3" y="190.4" width="128" height="1.8"/><rect x="181.3" y="196.1" width="126" height="1.8"/></g>
</svg>
